<svg xmlns="http://www.w3.org/2000/svg" width="108.042" height="34.907" viewBox="0 0 108.042 34.907">
  <g id="Group_146" data-name="Group 146" transform="translate(-81.935 -22.333)">
    <g id="Group_51" data-name="Group 51" transform="translate(-98)" opacity="0.6">
      <path id="Path_1" data-name="Path 1" d="M44.976,112.08a.423.423,0,1,1,.163-.576.424.424,0,0,1-.163.576" transform="translate(146.117 -62.534)" fill="#fff"/>
      <path id="Path_2" data-name="Path 2" d="M31.43,113.829a.635.635,0,1,1,.244-.864.635.635,0,0,1-.244.864" transform="translate(156.688 -63.565)" fill="#fff"/>
      <path id="Path_3" data-name="Path 3" d="M15.547,111.718a1.059,1.059,0,1,1,.407-1.441,1.058,1.058,0,0,1-.407,1.441" transform="translate(169.28 -61.35)" fill="#fff"/>
      <path id="Path_4" data-name="Path 4" d="M2.364,99.111a1.588,1.588,0,1,1,.61-2.161,1.588,1.588,0,0,1-.61,2.161" transform="translate(179.935 -50.98)" fill="#fff"/>
      <path id="Path_5" data-name="Path 5" d="M3.615,78.375a2.011,2.011,0,1,1,.773-2.738,2.012,2.012,0,0,1-.773,2.738" transform="translate(179.461 -34.563)" fill="#fff"/>
      <path id="Path_6" data-name="Path 6" d="M15.184,58.357a2.223,2.223,0,1,1,.854-3.026,2.223,2.223,0,0,1-.854,3.026" transform="translate(170.879 -18.995)" fill="#fff"/>
      <path id="Path_7" data-name="Path 7" d="M33.076,41.385a2.435,2.435,0,1,1,.936-3.314,2.435,2.435,0,0,1-.936,3.314" transform="translate(157.475 -5.75)" fill="#fff"/>
      <path id="Path_8" data-name="Path 8" d="M152.723,45.108a.635.635,0,1,0-.864-.244.635.635,0,0,0,.864.244" transform="translate(64.19 -11.159)" fill="#fff"/>
      <path id="Path_9" data-name="Path 9" d="M158.318,30.977a1.059,1.059,0,1,0-1.441-.407,1.059,1.059,0,0,0,1.441.407" transform="translate(60.404 0.222)" fill="#fff"/>
      <path id="Path_10" data-name="Path 10" d="M153.328,13.786a1.588,1.588,0,1,0-2.161-.61,1.588,1.588,0,0,0,2.161.61" transform="translate(64.811 14.088)" fill="#fff"/>
      <path id="Path_11" data-name="Path 11" d="M134.088,4.517a2.011,2.011,0,1,0-2.738-.773,2.011,2.011,0,0,0,2.738.773" transform="translate(79.964 21.76)" fill="#fff"/>
      <path id="Path_12" data-name="Path 12" d="M110.519,4.164a2.223,2.223,0,1,0-3.026-.854,2.223,2.223,0,0,0,3.026.854" transform="translate(98.178 22.333)" fill="#fff"/>
      <path id="Path_13" data-name="Path 13" d="M86.238,10.794a2.435,2.435,0,1,0-3.314-.936,2.435,2.435,0,0,0,3.314.936" transform="translate(116.934 17.579)" fill="#fff"/>
    </g>
    <g id="Group_50" data-name="Group 50" transform="translate(-98)">
      <rect id="Rectangle_1" data-name="Rectangle 1" width="4.671" height="21.546" transform="translate(193.119 35.181)" fill="#fff"/>
      <path id="Path_14" data-name="Path 14" d="M101.2,51.6A8.731,8.731,0,0,0,97,52.642a7.577,7.577,0,0,0-2.521,2.169L94.135,52.2H89.89V73.7h4.67V62.35a8.717,8.717,0,0,1,.451-2.944,5.209,5.209,0,0,1,1.223-1.991,4.91,4.91,0,0,1,1.8-1.122,6.432,6.432,0,0,1,3.881-.122,3.859,3.859,0,0,1,1.5.828,4.061,4.061,0,0,1,1.063,1.662,8.508,8.508,0,0,1,.407,2.878v12.2h4.671v-13.1a10.233,10.233,0,0,0-1.972-6.527c-1.327-1.669-3.476-2.516-6.387-2.516" transform="translate(111.385 -17.016)" fill="#fff"/>
      <path id="Path_15" data-name="Path 15" d="M272.689,53.255a12.11,12.11,0,0,0-11.593,0,10.193,10.193,0,0,0-3.86,4.058,12.185,12.185,0,0,0-1.363,5.772,12.022,12.022,0,0,0,1.364,5.773,10.406,10.406,0,0,0,3.857,4.034,11.954,11.954,0,0,0,11.6,0,10.463,10.463,0,0,0,3.835-4.033,12.031,12.031,0,0,0,1.364-5.773,12.191,12.191,0,0,0-1.363-5.772,10.247,10.247,0,0,0-3.838-4.058m-2.481,15.985a6.053,6.053,0,0,1-3.327.909,5.942,5.942,0,0,1-3.3-.908,6.253,6.253,0,0,1-2.192-2.52,8.773,8.773,0,0,1,0-7.312,6.318,6.318,0,0,1,2.194-2.48,5.937,5.937,0,0,1,3.3-.908,6.046,6.046,0,0,1,3.327.91,6.112,6.112,0,0,1,2.191,2.476,8.993,8.993,0,0,1,0,7.318,6.057,6.057,0,0,1-2.189,2.516" transform="translate(-15.192 -17.152)" fill="#fff"/>
      <path id="Path_16" data-name="Path 16" d="M373.889,20.22h-4.1V13.683H365.16V20.22h-8.8V17.214a4.261,4.261,0,0,1,.6-2.46,2.768,2.768,0,0,1,2.36-.8h2.121V9.881l-.281-.04c-.4-.057-.828-.1-1.263-.131s-.866-.044-1.261-.044a8.093,8.093,0,0,0-3.561.759,5.576,5.576,0,0,0-2.5,2.469,9.19,9.19,0,0,0-.893,4.319V20.22H348.61v3.987h3.076V41.766h4.671V24.207h8.8V41.766h4.628V24.207h4.1Z" transform="translate(-85.913 14.961)" fill="#fff"/>
      <path id="Path_17" data-name="Path 17" d="M185.015,67.224q.344,3.577,4.266,3.577,3.145,0,3.146-2.413,0-1.809-2.457-2.327l-3.1-.689q-5.645-1.249-5.645-6.119a6.124,6.124,0,0,1,2.241-4.74,7.967,7.967,0,0,1,5.472-2.025,8.46,8.46,0,0,1,6.119,2.155,6.386,6.386,0,0,1,1.983,3.706l-4.223,1.206a3.607,3.607,0,0,0-3.879-3.145,3.343,3.343,0,0,0-2.154.689,2.12,2.12,0,0,0-.862,1.724q0,1.723,2.111,2.2l3.189.646q6.032,1.293,6.032,6.377a6.247,6.247,0,0,1-1.939,4.567,8.275,8.275,0,0,1-5.99,2.155,9.168,9.168,0,0,1-6.506-2.284,6.176,6.176,0,0,1-2.155-4.05Z" transform="translate(42.163 -17.693)" fill="#fff"/>
      <path id="Path_19" data-name="Path 19" d="M58.455,18.388a2.941,2.941,0,1,1-4.029-1.03,2.94,2.94,0,0,1,4.029,1.03" transform="translate(139.529 9.41)" fill="#fff"/>
    </g>
  </g>
</svg>