<?xml version="1.0" encoding="utf-8"?>
<svg width="768px" height="812px" viewBox="0 0 768 812" version="1.1" xmlns:xlink="http://www.w3.org/1999/xlink" xmlns="http://www.w3.org/2000/svg">
  <defs>
    <linearGradient gradientUnits="objectBoundingBox" x1="-0.010223389" y1="0.00048828125" x2="0.74154663" y2="0.49699402" id="gradient_1">
      <stop offset="0%" stop-color="#3760AC" />
      <stop offset="19.57%" stop-color="#396DB1" />
      <stop offset="55.989998%" stop-color="#3E90BD" />
      <stop offset="99.94%" stop-color="#46C2CE" />
      <stop offset="100%" stop-color="#46C2CE" />
    </linearGradient>
    <radialGradient gradientUnits="objectBoundingBox" cx="0%" cy="0%" fx="0%" fy="0%" r="194.23102%" gradientTransform="translate(0,0),rotate(30.987486),scale(1,1.251648),translate(-0,-0)" id="gradient_2">
      <stop offset="0%" stop-color="#00AA9B" />
      <stop offset="100%" stop-color="#59ADFF" />
    </radialGradient>
    <radialGradient gradientUnits="objectBoundingBox" cx="0%" cy="0%" fx="0%" fy="0%" r="166.89795%" gradientTransform="translate(0,0),rotate(36.810364),scale(1,1.0829502),translate(-0,-0)" id="gradient_3">
      <stop offset="0%" stop-color="#D88282" />
      <stop offset="100%" stop-color="#FF4C59" />
    </radialGradient>
    <radialGradient gradientUnits="objectBoundingBox" cx="0%" cy="0%" fx="0%" fy="0%" r="189.55455%" gradientTransform="translate(0,0),rotate(31.840244),scale(1,1.2203959),translate(-0,-0)" id="gradient_4">
      <stop offset="0%" stop-color="#FAE800" />
      <stop offset="100%" stop-color="#F85B22" />
    </radialGradient>
    <filter filterUnits="userSpaceOnUse" color-interpolation-filters="sRGB" id="filter_1">
      <feFlood flood-opacity="0" result="BackgroundImageFix" />
      <feColorMatrix in="SourceAlpha" type="matrix" values="0 0 0 0 0 0 0 0 0 0 0 0 0 0 0 0 0 0 128 0" />
      <feOffset dx="0" dy="2" />
      <feGaussianBlur stdDeviation="2" />
      <feColorMatrix type="matrix" values="0 0 0 0 0.39215687 0 0 0 0 0.39215687 0 0 0 0 0.39215687 0 0 0 0.49803922 0" />
      <feBlend mode="normal" in2="BackgroundImageFix" result="effect0_dropShadow" />
      <feBlend mode="normal" in="SourceGraphic" in2="effect0_dropShadow" result="shape" />
    </filter>
    <filter filterUnits="userSpaceOnUse" color-interpolation-filters="sRGB" id="filter_2">
      <feFlood flood-opacity="0" result="BackgroundImageFix" />
      <feColorMatrix in="SourceAlpha" type="matrix" values="0 0 0 0 0 0 0 0 0 0 0 0 0 0 0 0 0 0 128 0" />
      <feOffset dx="0" dy="2" />
      <feGaussianBlur stdDeviation="6" />
      <feColorMatrix type="matrix" values="0 0 0 0 0.39215687 0 0 0 0 0.39215687 0 0 0 0 0.39215687 0 0 0 0.49803922 0" />
      <feBlend mode="normal" in2="BackgroundImageFix" result="effect0_dropShadow" />
      <feBlend mode="normal" in="SourceGraphic" in2="effect0_dropShadow" result="shape" />
    </filter>
    <path d="M768 0L768 0L768 812L0 812L0 0L768 0Z" id="path_1" />
    <path d="M150 0L150 0L150 47.7778L0 47.7778L0 0L150 0Z" id="path_2" />
    <path d="M120 0L120 0L120 56L0 56L0 0L120 0Z" id="path_3" />
    <clipPath id="clip_1">
      <use xlink:href="#path_1" clip-rule="evenodd" fill-rule="evenodd" />
    </clipPath>
    <clipPath id="clip_2">
      <use xlink:href="#path_2" clip-rule="evenodd" fill-rule="evenodd" />
    </clipPath>
    <clipPath id="clip_3">
      <use xlink:href="#path_3" clip-rule="evenodd" fill-rule="evenodd" />
    </clipPath>
  </defs>
  <g id="Frame">
    <path d="M768 0L768 0L768 812L0 812L0 0L768 0Z" id="Frame" fill="none" stroke="none" />
    <g id="Group-3" transform="translate(-60.553017 -185.39001)" clip-path="url(#clip_1)">
      <path d="M43.6214 85.8493L43.6214 395.849Q43.6214 396.046 43.6311 396.242Q43.6407 396.438 43.6599 396.633Q43.6792 396.829 43.708 397.023Q43.7368 397.217 43.7751 397.41Q43.8134 397.603 43.8612 397.793Q43.9089 397.984 43.9659 398.172Q44.0229 398.359 44.0891 398.544Q44.1552 398.729 44.2304 398.911Q44.3055 399.092 44.3895 399.27Q44.4735 399.447 44.566 399.62Q44.6586 399.794 44.7596 399.962Q44.8605 400.131 44.9697 400.294Q45.0788 400.457 45.1957 400.615Q45.3127 400.773 45.4373 400.924Q45.5619 401.076 45.6938 401.222Q45.8257 401.367 45.9646 401.506Q46.1034 401.645 46.2489 401.777Q46.3945 401.909 46.5463 402.033Q46.6981 402.158 46.8558 402.275Q47.0136 402.392 47.1768 402.501Q47.3401 402.61 47.5086 402.711Q47.677 402.812 47.8502 402.905Q48.0234 402.997 48.201 403.081Q48.3785 403.165 48.5599 403.24Q48.7414 403.315 48.9263 403.382Q49.1112 403.448 49.2991 403.505Q49.4871 403.562 49.6776 403.61Q49.8681 403.657 50.0607 403.696Q50.2533 403.734 50.4476 403.763Q50.6418 403.792 50.8373 403.811Q51.0327 403.83 51.2289 403.84Q51.425 403.849 51.6214 403.849L514.621 403.849Q514.818 403.849 515.014 403.84Q515.21 403.83 515.406 403.811Q515.601 403.792 515.795 403.763Q515.99 403.734 516.182 403.696Q516.375 403.657 516.565 403.609Q516.756 403.562 516.944 403.505Q517.132 403.448 517.317 403.382Q517.501 403.315 517.683 403.24Q517.864 403.165 518.042 403.081Q518.219 402.997 518.393 402.905Q518.566 402.812 518.734 402.711Q518.903 402.61 519.066 402.501Q519.229 402.392 519.387 402.275Q519.545 402.158 519.697 402.033Q519.848 401.909 519.994 401.777Q520.139 401.645 520.278 401.506Q520.417 401.367 520.549 401.222Q520.681 401.076 520.806 400.924Q520.93 400.773 521.047 400.615Q521.164 400.457 521.273 400.294Q521.382 400.131 521.483 399.962Q521.584 399.794 521.677 399.62Q521.769 399.447 521.853 399.27Q521.937 399.092 522.012 398.911Q522.088 398.729 522.154 398.544Q522.22 398.359 522.277 398.172Q522.334 397.984 522.382 397.793Q522.429 397.603 522.468 397.41Q522.506 397.217 522.535 397.023Q522.564 396.829 522.583 396.634Q522.602 396.438 522.612 396.242Q522.621 396.046 522.621 395.849L522.621 85.8493Q522.621 85.6529 522.612 85.4568Q522.602 85.2606 522.583 85.0652Q522.564 84.8697 522.535 84.6755Q522.506 84.4812 522.468 84.2886Q522.429 84.096 522.382 83.9055Q522.334 83.715 522.277 83.527Q522.22 83.3391 522.154 83.1542Q522.088 82.9693 522.012 82.7878Q521.937 82.6064 521.853 82.4289Q521.769 82.2513 521.677 82.0781Q521.584 81.9049 521.483 81.7365Q521.382 81.568 521.273 81.4047Q521.164 81.2414 521.047 81.0837Q520.93 80.926 520.806 80.7742Q520.681 80.6223 520.549 80.4768Q520.417 80.3313 520.278 80.1924Q520.139 80.0536 519.994 79.9217Q519.848 79.7898 519.697 79.6652Q519.545 79.5406 519.387 79.4236Q519.229 79.3066 519.066 79.1975Q518.903 79.0884 518.734 78.9875Q518.566 78.8865 518.393 78.7939Q518.219 78.7013 518.042 78.6174Q517.864 78.5334 517.683 78.4583Q517.501 78.3831 517.317 78.3169Q517.132 78.2508 516.944 78.1938Q516.756 78.1368 516.565 78.0891Q516.375 78.0413 516.182 78.003Q515.99 77.9647 515.795 77.9359Q515.601 77.9071 515.406 77.8878Q515.21 77.8686 515.014 77.8589Q514.818 77.8493 514.621 77.8493L51.6214 77.8493Q51.425 77.8493 51.2289 77.8589Q51.0327 77.8686 50.8373 77.8878Q50.6418 77.9071 50.4476 77.9359Q50.2533 77.9647 50.0607 78.003Q49.8681 78.0413 49.6776 78.0891Q49.4871 78.1368 49.2991 78.1938Q49.1112 78.2508 48.9263 78.3169Q48.7414 78.3831 48.5599 78.4583Q48.3785 78.5334 48.201 78.6174Q48.0234 78.7013 47.8502 78.7939Q47.677 78.8865 47.5086 78.9875Q47.3401 79.0884 47.1768 79.1975Q47.0135 79.3066 46.8558 79.4236Q46.6981 79.5406 46.5463 79.6652Q46.3944 79.7898 46.2489 79.9217Q46.1034 80.0536 45.9646 80.1924Q45.8257 80.3313 45.6938 80.4768Q45.5619 80.6223 45.4373 80.7742Q45.3127 80.926 45.1957 81.0837Q45.0788 81.2414 44.9696 81.4047Q44.8605 81.568 44.7596 81.7365Q44.6586 81.9049 44.566 82.0781Q44.4735 82.2513 44.3895 82.4289Q44.3055 82.6064 44.2304 82.7878Q44.1552 82.9693 44.0891 83.1542Q44.0229 83.3391 43.9659 83.527Q43.9089 83.715 43.8612 83.9055Q43.8134 84.096 43.7751 84.2886Q43.7368 84.4812 43.708 84.6755Q43.6792 84.8697 43.6599 85.0652Q43.6407 85.2606 43.631 85.4568Q43.6214 85.6529 43.6214 85.8493Z" transform="rotate(-22 283.12 240.85)" id="Rectangle" fill="#17232E" stroke="none" />
      <g id="Group" transform="translate(235.55301 207.91136)">
        <g id="valueit">
          <path d="M150 0L150 0L150 47.7778L0 47.7778L0 0L150 0Z" id="valueit" fill="none" stroke="none" transform="translate(8 115.478645)" />
          <g id="Group" clip-path="url(#clip_2)" transform="translate(8 115.478645), translate(13.202538 5.1548505)">
            <g id="Group">
              <path d="M101.485 8.92538L107.37 8.92538L107.37 26.3469L101.485 26.3469L101.485 8.92538Z" id="Rectangle" fill="#3760AC" fill-rule="evenodd" stroke="none" filter="url(#filter_1)" />
              <path d="M101.485 2.62509L107.37 2.62509L107.37 7.87539L101.485 7.87539L101.485 2.62509Z" id="Rectangle" fill="#3760AC" fill-rule="evenodd" stroke="none" filter="url(#filter_1)" />
              <path d="M124.443 20.6195C123.807 21.0968 123.118 21.3355 122.322 21.4787C122.216 21.4787 122.163 21.5264 122.057 21.5264C121.315 21.5741 120.573 21.2877 119.936 20.8104C119.194 20.1899 118.77 19.3785 118.717 18.4717L118.717 14.2237L124.072 14.2237L124.072 8.92565L118.664 8.92565L118.664 2.57755L112.778 2.57755L112.778 8.92565L109.279 8.92565L109.279 14.2237L112.778 14.2237L112.831 19.4263C112.991 21.4309 113.998 23.3401 115.695 24.7243C117.232 25.9653 119.141 26.6812 121.103 26.6812C121.262 26.6812 121.368 26.6812 121.527 26.6812C121.792 26.6812 122.057 26.6335 122.322 26.5858C123.966 26.3471 125.451 25.7744 126.776 24.8198L124.443 20.6195L124.443 20.6195Z" id="Shape" fill="#3760AC" fill-rule="evenodd" stroke="none" filter="url(#filter_1)" />
              <path d="M36.2673 7.82773C33.033 7.82773 29.7456 8.59141 27.5187 10.0233L29.6396 13.7463C31.1242 12.6962 33.3511 12.028 35.472 12.028C38.6533 12.028 40.138 13.3644 40.138 15.6077L35.472 15.6077C29.2684 15.6077 26.7764 17.851 26.7764 21.0967C26.7764 24.2469 29.5865 26.6334 34.3585 26.6334C37.3278 26.6334 39.4487 25.7265 40.5621 24.1037L40.5621 26.3947L46.0765 26.3947L46.0765 15.9418C46.0234 10.4052 42.4709 7.82773 36.2673 7.82773M40.138 20.7853C39.5018 22.5493 37.8051 23.4831 35.8432 23.4831C33.7754 23.4831 32.5028 22.5493 32.5028 21.0966C32.5028 19.7477 33.3512 18.7101 36.1083 18.7101L40.138 18.7101L40.138 20.7853L40.138 20.7853Z" id="Shape" fill="#3760AC" fill-rule="evenodd" stroke="none" filter="url(#filter_1)" />
              <path d="M47.9323 0.763717L53.8178 0.763717L53.8178 26.3948L47.9323 26.3948L47.9323 0.763717Z" id="Rectangle" fill="#3760AC" fill-rule="evenodd" stroke="none" filter="url(#filter_1)" />
              <path d="M70.4134 17.1352C70.4134 20.4763 68.4516 22.0514 65.7475 22.0514C63.1494 22.0514 61.6117 20.715 61.6117 17.6125L61.6117 7.87558L55.7262 7.87558L55.7262 18.4239C55.7262 24.0561 59.3318 26.6335 64.4219 26.6335C66.9139 26.6335 69.1939 25.7743 70.7315 24.1993L70.7315 26.3471L76.2989 26.3471L76.2989 7.87558L70.4134 7.87558L70.4134 17.1352L70.4134 17.1352Z" id="Shape" fill="#3760AC" fill-rule="evenodd" stroke="none" filter="url(#filter_1)" />
              <path d="M89.0244 7.82773C82.8208 7.82773 78.2079 11.7893 78.2079 17.2306C78.2079 22.6718 82.7678 26.6334 89.7667 26.6334C93.4252 26.6334 96.2354 25.631 98.1442 23.6741L95.0159 20.6194C93.6373 21.8126 92.0467 22.3854 89.9258 22.3854C86.8505 22.3854 84.6766 21.0012 84.0933 18.7102L99.4698 18.7102C99.5228 18.2806 99.5758 17.7079 99.5758 17.2783C99.5758 11.4075 94.9629 7.82773 89.0244 7.82773M84.0404 16.6101C84.4646 13.6866 86.3734 11.8371 89.0775 11.8371C91.7286 11.8371 93.6374 13.6866 94.0616 16.6101L84.0404 16.6101L84.0404 16.6101Z" id="Shape" fill="#3760AC" fill-rule="evenodd" stroke="none" filter="url(#filter_1)" />
              <g id="Group">
                <g filter="url(#filter_1)">
                  <g id="Group" transform="translate(0 2.6250875)">
                    <path d="M18.5048 4.43889C18.5048 4.43889 20.8908 3.62748 20.8908 3.62748C20.8908 3.62748 21.315 5.91853 21.315 5.91853C21.315 5.91853 21.7921 8.20957 21.7921 8.20957C21.7921 8.20957 20.4136 7.49362 20.4136 7.49362C20.4136 7.49362 12.5663 19.7602 12.5663 19.7602C12.5663 19.7602 15.1113 23.7696 15.1113 23.7696C15.1113 23.7696 30.3287 0 30.3287 0C30.3287 0 16.1718 0 16.1718 0C16.1718 0 10.7105 8.63914 10.7105 8.63914C10.7105 8.63914 5.14316 0 5.14316 0C5.14316 0 0 0 0 0C0 0 10.6045 16.7055 10.6045 16.7055C10.6045 16.7055 17.4973 5.96626 17.4973 5.96626C17.4973 5.96626 16.1188 5.25031 16.1188 5.25031C16.1188 5.25031 18.5048 4.43889 18.5048 4.43889Z" id="Polygon" fill="url(#gradient_1)" fill-rule="evenodd" stroke="none" />
                    <path d="M11.506 21.3831C11.506 21.3831 11.606 21.3831 11.606 21.3831C11.606 21.3831 11.606 21.3831 11.606 21.3831C11.606 21.3831 11.506 21.3831 11.506 21.3831Z" id="Polygon" fill="none" fill-rule="evenodd" stroke="none" />
                  </g>
                </g>
                <path d="M13.2556 0L14.1039 0L14.1039 0.763681L13.2556 0.763681L13.2556 0Z" id="Rectangle" fill="#3C8CBB" fill-rule="evenodd" stroke="none" filter="url(#filter_1)" />
                <path d="M14.1038 0.763717L16.1717 0.763717L16.1717 2.62519L14.1038 2.62519L14.1038 0.763717Z" id="Rectangle" fill="#3C8CBB" fill-rule="evenodd" stroke="none" filter="url(#filter_1)" />
              </g>
            </g>
          </g>
        </g>
        <path d="M1.59801 110.582L1.59801 91.6193L41.3885 56.7827Q48.1001 50.7635 51.7756 45.9695Q55.451 41.1754 55.451 35.0497Q55.451 28.2848 51.1097 24.4229Q46.7685 20.5611 40.1101 20.5611Q33.3452 20.5611 29.1637 24.636Q24.9822 28.7109 24.9822 36.1151L0 36.1151Q0 24.9823 5.0071 16.8857Q10.0142 8.78906 19.0962 4.39453Q28.1783 7.62939e-06 40.2166 0Q52.6278 7.62939e-06 61.7898 4.15483Q70.9517 8.30967 75.9854 15.7138Q81.0192 23.1179 81.0192 32.9723Q81.0192 39.2046 78.489 45.3036Q75.9588 51.4027 69.4869 58.8335Q63.0149 66.2642 51.1896 76.598L38.1392 88.6364L38.1392 89.3288L82.3509 89.3288L82.3509 110.582L1.59801 110.582ZM142.436 113.246Q128.161 113.246 117.8 106.454Q107.44 99.6627 101.873 86.9052Q96.3068 74.1477 96.3601 56.1967Q96.4134 29.2969 108.718 14.6484Q121.023 7.62939e-06 142.436 0Q156.712 7.62939e-06 167.072 6.57848Q177.433 13.157 183.026 25.728Q188.619 38.299 188.565 56.1967Q188.565 74.201 182.972 86.9851Q177.379 99.7692 167.045 106.507Q156.712 113.246 142.436 113.246ZM142.436 91.6726Q151.012 91.6726 156.259 82.9634Q161.506 74.2543 161.452 56.1967Q161.399 38.5121 156.179 29.9627Q150.959 21.4134 142.436 21.4134Q133.967 21.4134 128.746 29.9627Q123.526 38.5121 123.473 56.1967Q123.42 74.2543 128.667 82.9634Q133.913 91.6726 142.436 91.6726Z" id="twenty" fill="url(#gradient_2)" fill-rule="evenodd" stroke="none" filter="url(#filter_2)" />
      </g>
    </g>
    <g id="Group-2" transform="translate(-99.65173 93.37842)" clip-path="url(#clip_1)">
      <path d="M22.6434 287.927L22.6434 89.927Q22.6434 89.7306 22.6531 89.5345Q22.6627 89.3383 22.682 89.1429Q22.7012 88.9474 22.73 88.7532Q22.7588 88.5589 22.7971 88.3663Q22.8355 88.1737 22.8832 87.9832Q22.9309 87.7927 22.9879 87.6047Q23.0449 87.4168 23.1111 87.2319Q23.1772 87.047 23.2524 86.8655Q23.3275 86.6841 23.4115 86.5066Q23.4955 86.329 23.5881 86.1558Q23.6806 85.9826 23.7816 85.8142Q23.8826 85.6457 23.9917 85.4825Q24.1008 85.3192 24.2178 85.1614Q24.3348 85.0037 24.4593 84.8519Q24.5839 84.7001 24.7158 84.5546Q24.8477 84.409 24.9866 84.2702Q25.1254 84.1313 25.271 83.9994Q25.4165 83.8675 25.5683 83.743Q25.7201 83.6184 25.8778 83.5014Q26.0356 83.3844 26.1989 83.2753Q26.3622 83.1662 26.5306 83.0652Q26.6991 82.9642 26.8723 82.8717Q27.0455 82.7791 27.223 82.6951Q27.4005 82.6111 27.582 82.536Q27.7634 82.4608 27.9483 82.3947Q28.1332 82.3285 28.3212 82.2715Q28.5091 82.2145 28.6996 82.1668Q28.8901 82.119 29.0827 82.0807Q29.2753 82.0424 29.4696 82.0136Q29.6639 81.9848 29.8593 81.9656Q30.0547 81.9463 30.2509 81.9367Q30.447 81.927 30.6434 81.927L493.643 81.927Q493.84 81.927 494.036 81.9367Q494.232 81.9463 494.428 81.9656Q494.623 81.9848 494.817 82.0136Q495.012 82.0424 495.204 82.0807Q495.397 82.119 495.587 82.1668Q495.778 82.2145 495.966 82.2715Q496.154 82.3285 496.339 82.3947Q496.523 82.4608 496.705 82.536Q496.886 82.6111 497.064 82.6951Q497.241 82.7791 497.415 82.8717Q497.588 82.9642 497.756 83.0652Q497.925 83.1662 498.088 83.2753Q498.251 83.3844 498.409 83.5014Q498.567 83.6184 498.719 83.743Q498.87 83.8675 499.016 83.9994Q499.161 84.1313 499.3 84.2702Q499.439 84.409 499.571 84.5546Q499.703 84.7001 499.828 84.8519Q499.952 85.0037 500.069 85.1614Q500.186 85.3192 500.295 85.4825Q500.404 85.6457 500.505 85.8142Q500.606 85.9826 500.699 86.1558Q500.791 86.329 500.875 86.5066Q500.959 86.6841 501.034 86.8655Q501.11 87.047 501.176 87.2319Q501.242 87.4168 501.299 87.6047Q501.356 87.7927 501.404 87.9832Q501.451 88.1737 501.49 88.3663Q501.528 88.5589 501.557 88.7532Q501.586 88.9474 501.605 89.1429Q501.624 89.3383 501.634 89.5345Q501.643 89.7306 501.643 89.927L501.643 287.927Q501.643 288.123 501.634 288.32Q501.624 288.516 501.605 288.711Q501.586 288.907 501.557 289.101Q501.528 289.295 501.49 289.488Q501.451 289.68 501.404 289.871Q501.356 290.061 501.299 290.249Q501.242 290.437 501.176 290.622Q501.11 290.807 501.034 290.988Q500.959 291.17 500.875 291.347Q500.791 291.525 500.699 291.698Q500.606 291.871 500.505 292.04Q500.404 292.208 500.295 292.372Q500.186 292.535 500.069 292.693Q499.952 292.85 499.828 293.002Q499.703 293.154 499.571 293.299Q499.439 293.445 499.3 293.584Q499.161 293.723 499.016 293.855Q498.87 293.987 498.719 294.111Q498.567 294.236 498.409 294.353Q498.251 294.47 498.088 294.579Q497.925 294.688 497.756 294.789Q497.588 294.89 497.415 294.982Q497.241 295.075 497.064 295.159Q496.886 295.243 496.705 295.318Q496.523 295.393 496.339 295.459Q496.154 295.526 495.966 295.583Q495.778 295.64 495.587 295.687Q495.397 295.735 495.204 295.773Q495.012 295.812 494.817 295.84Q494.623 295.869 494.428 295.888Q494.232 295.908 494.036 295.917Q493.84 295.927 493.643 295.927L30.6434 295.927Q30.447 295.927 30.2509 295.917Q30.0547 295.908 29.8593 295.888Q29.6639 295.869 29.4696 295.84Q29.2753 295.812 29.0827 295.773Q28.8901 295.735 28.6996 295.687Q28.5091 295.64 28.3212 295.583Q28.1332 295.526 27.9483 295.459Q27.7634 295.393 27.582 295.318Q27.4005 295.243 27.223 295.159Q27.0455 295.075 26.8723 294.982Q26.6991 294.89 26.5306 294.789Q26.3622 294.688 26.1989 294.579Q26.0356 294.47 25.8778 294.353Q25.7201 294.236 25.5683 294.111Q25.4165 293.987 25.271 293.855Q25.1254 293.723 24.9866 293.584Q24.8477 293.445 24.7158 293.299Q24.5839 293.154 24.4593 293.002Q24.3348 292.85 24.2178 292.693Q24.1008 292.535 23.9917 292.372Q23.8826 292.208 23.7816 292.04Q23.6806 291.871 23.5881 291.698Q23.4955 291.525 23.4115 291.347Q23.3275 291.17 23.2524 290.988Q23.1772 290.807 23.1111 290.622Q23.0449 290.437 22.9879 290.249Q22.9309 290.061 22.8832 289.871Q22.8355 289.68 22.7971 289.488Q22.7588 289.295 22.73 289.101Q22.7012 288.907 22.682 288.711Q22.6627 288.516 22.6531 288.32Q22.6434 288.123 22.6434 287.927Z" transform="rotate(-158 262.14 188.93)" id="Rectangle" fill="#00FFBB" stroke="none" />
      <path d="M115.487 188.389L115.487 169.426L155.277 134.589Q161.989 128.57 165.664 123.776Q169.34 118.982 169.34 112.856Q169.34 106.091 164.999 102.229Q160.657 98.3673 153.999 98.3673Q147.234 98.3673 143.053 102.442Q138.871 106.517 138.871 113.921L113.889 113.921Q113.889 102.788 118.896 94.6919Q123.903 86.5953 132.985 82.2007Q142.067 77.8062 154.106 77.8062Q166.517 77.8062 175.679 81.961Q184.841 86.1159 189.874 93.52Q194.908 100.924 194.908 110.779Q194.908 117.011 192.378 123.11Q189.848 129.209 183.376 136.64Q176.904 144.07 165.079 154.404L152.028 166.443L152.028 167.135L196.24 167.135L196.24 188.389L115.487 188.389ZM261.652 79.2977L261.652 188.389L235.338 188.389L235.338 103.907L234.699 103.907L210.302 118.822L210.302 96.0235L237.202 79.2977L261.652 79.2977Z" id="twentyone" fill="url(#gradient_3)" fill-rule="evenodd" stroke="none" filter="url(#filter_2)" />
      <g id="avito">
        <path d="M120 0L120 0L120 56L0 56L0 0L120 0Z" id="avito" fill="none" stroke="none" transform="translate(129.65173 192.12157)" />
        <path d="M21.45 18.316L29.067 15.849C29.335 15.7865 29.5241 15.5471 29.523 15.272C29.5249 15.0472 29.3978 14.8412 29.196 14.742L29.032 14.694L21.367 12.203L18.044 11.169C17.7705 11.1023 17.4929 11.0538 17.213 11.024C17.061 11.012 16.92 11 16.733 11L16.674 11L16.593 11.012C16.242 11.024 15.903 11.06 15.586 11.144L12.064 12.216L5.23002 14.694C5.19502 14.706 5.14802 14.718 5.11302 14.73C4.90015 14.8265 4.76304 15.0383 4.76202 15.272C4.76202 15.488 4.87902 15.681 5.05402 15.777L5.24102 15.849L12.123 18.329L15.833 19.459L16.055 19.495C16.253 19.532 16.452 19.544 16.71 19.544C17.12 19.544 17.529 19.495 17.927 19.375L18.418 19.243L21.449 18.316L21.45 18.316Z" id="Shape" fill="#2EC966" stroke="none" filter="url(#filter_1)" clip-path="url(#clip_3)" transform="translate(129.65173 192.12157)" />
        <path d="M32.885 19.26C32.275 18.824 31.905 18.594 31.162 18.594C30.8174 18.5932 30.4746 18.6438 30.145 18.744L20.585 21.614C19.1 22.038 18.095 23.324 18.095 24.815L18.095 40.875C18.095 41.999 18.658 43.01 19.627 43.641C20.596 44.272 21.781 44.399 22.87 43.985L32.43 40.185C33.771 39.669 34.285 38.452 34.285 37.075L34.285 21.946C34.285 20.878 33.771 19.903 32.885 19.26" id="Shape" fill="#3AA4FF" stroke="none" filter="url(#filter_1)" clip-path="url(#clip_3)" transform="translate(129.65173 192.12157)" />
        <path d="M13.566 21.393L2.64998 17.74C2.43556 17.6791 2.21388 17.6474 1.99098 17.646C1.49698 17.646 1.35498 17.811 0.942977 18.118C0.342977 18.565 0.000976563 19.248 0.000976563 19.992L0.000976563 36.825C0.000976563 37.78 0.224977 38.629 1.10798 38.995L12.024 44.052C12.754 44.346 13.544 44.264 14.203 43.827C14.8558 43.3967 15.2458 42.6648 15.239 41.883L15.239 23.633C15.239 22.608 14.556 21.677 13.567 21.393" id="Shape" fill="#FF4C59" stroke="none" filter="url(#filter_1)" clip-path="url(#clip_3)" transform="translate(129.65173 192.12157)" />
        <path d="M84.789 15.746L84.767 15.746C84.2509 15.746 83.7789 15.932 83.417 16.283C83.066 16.633 82.867 17.103 82.857 17.618C82.8461 18.701 83.658 19.522 84.7339 19.544C85.2389 19.544 85.734 19.358 86.0949 19.007C86.4459 18.657 86.6549 18.176 86.666 17.661C86.6825 17.1561 86.4921 16.6663 86.1389 16.305C85.7823 15.9448 85.2957 15.7434 84.789 15.746L84.789 15.746ZM66.6529 40.163L65.759 37.986C62.955 31.0702 60.1333 24.1601 57.294 17.2573C57.2099 17.0543 56.8099 16.8173 56.5319 16.7933C55.9769 16.7573 55.4089 16.7693 54.8519 16.7693C54.2969 16.7813 53.7049 16.7813 53.1369 16.7453C52.4839 16.6983 52.2549 16.9593 52.0369 17.5193C49.8379 22.9563 47.59 28.4763 45.415 33.8193L43.0469 39.6363C42.9868 39.7683 42.9341 39.9035 42.889 40.0413C42.8649 40.1363 42.8649 40.2433 42.9379 40.3263C43.0019 40.4084 43.0999 40.4566 43.2039 40.4573L43.7349 40.4453L44.8229 40.4453C45.3669 40.4453 45.9099 40.4573 46.4429 40.4693C46.8889 40.4933 47.1069 40.3393 47.2629 39.9103C47.5419 39.1373 47.8429 38.3753 48.1459 37.6023C48.4239 36.8883 48.7019 36.1623 48.9679 35.4483C49.2339 34.7353 49.6079 34.5563 50.7809 34.6163L58.5989 34.6033C59.6619 34.5443 60.2189 34.6633 60.4959 35.4253C61.1609 37.2093 61.681 38.5893 62.2359 39.8623C62.3449 40.1243 62.6959 40.4103 62.9259 40.4223C63.8679 40.4823 64.8099 40.4693 65.8009 40.4573L66.5019 40.4453C66.5619 40.4453 66.622 40.4103 66.6589 40.3623C66.6877 40.3156 66.6922 40.2579 66.6709 40.2073L66.6529 40.163ZM50.75 30.872L54.738 20.652L58.702 30.872L50.75 30.872L50.75 30.872ZM111.159 23.109C108.606 23.109 106.311 23.986 104.707 25.579C103.126 27.138 102.248 29.343 102.248 31.779C102.252 32.7425 102.402 33.7 102.693 34.6188L102.716 34.7008L102.658 34.7698C102.014 35.4498 101.569 35.8668 101.171 36.1668L101.065 36.2248C100.761 36.3978 100.456 36.5708 100.128 36.6868C99.6177 36.8793 99.0807 36.992 98.536 37.0208C97.599 37.0788 96.803 36.8478 96.276 36.3858C95.855 36.0058 95.6089 35.4738 95.574 34.8508C95.492 33.0148 95.504 31.2018 95.527 29.2848C95.527 28.4888 95.538 27.6918 95.538 26.8718L95.538 26.7218L100.047 26.7218C100.152 26.7234 100.253 26.6828 100.328 26.6091C100.403 26.5355 100.445 26.4348 100.445 26.3298L100.445 23.8468C100.444 23.7574 100.408 23.672 100.344 23.6094C100.28 23.5468 100.194 23.512 100.105 23.5128L95.433 23.5128L95.433 18.9978C95.4327 18.8897 95.3893 18.7862 95.3122 18.7103C95.2352 18.6344 95.1311 18.5925 95.023 18.5938L92.143 18.5938C92.0516 18.5938 91.964 18.6306 91.9 18.6959C91.8361 18.7611 91.8011 18.8494 91.803 18.9408L91.803 23.5588L88.97 23.5588C88.8648 23.5572 88.7634 23.5979 88.6886 23.6718C88.6137 23.7457 88.5717 23.8466 88.572 23.9518L88.572 26.3178C88.572 26.558 88.7647 26.7539 89.0049 26.7578L91.8269 26.7578L91.8269 29.3078C91.8159 31.1448 91.8159 32.8758 91.8389 34.6308C91.851 36.6058 92.4829 38.0608 93.725 39.0998C95.891 40.8998 100.411 40.8658 102.671 39.0188C103.209 38.6718 103.725 38.2568 104.31 37.7018L104.415 37.5868L104.521 37.7018C106.16 39.4338 108.502 40.3918 111.125 40.3918C112.344 40.3999 113.554 40.185 114.696 39.7578C115.764 39.3577 116.737 38.7404 117.554 37.9448C119.158 36.3628 120.001 34.2148 120.001 31.7098C120.001 26.6528 116.359 23.1198 111.16 23.1088L111.159 23.109ZM111.147 37.044C108.103 37.044 106.054 34.92 106.042 31.768C106.03 28.651 108.114 26.457 111.101 26.434C112.552 26.422 113.805 26.896 114.754 27.819C115.726 28.789 116.276 30.198 116.264 31.779C116.253 34.919 114.203 37.033 111.147 37.044L111.147 37.044ZM86.262 23.46L80.3021 23.436C80.184 23.412 80.089 23.412 80.006 23.412L77.382 23.388C77.156 23.376 76.907 23.388 76.741 23.495L76.694 23.519C76.563 23.626 76.504 23.757 76.444 23.924C76.4398 23.949 76.4321 23.9732 76.421 23.996C75.399 26.687 74.402 29.356 73.381 32.036L71.683 36.525L71.3509 35.632C69.903 31.844 68.454 28.057 67.006 24.258C66.887 23.96 66.768 23.65 66.507 23.496C66.281 23.364 65.961 23.376 65.6401 23.376C65.391 23.376 65.1541 23.364 64.916 23.364C64.631 23.364 64.346 23.353 64.038 23.364C63.967 23.364 63.895 23.353 63.824 23.353C63.717 23.34 63.61 23.34 63.515 23.34C63.1711 23.34 62.898 23.388 62.862 23.603C62.8391 23.746 62.898 23.889 62.957 24.067C63.741 26.104 64.584 28.152 65.391 30.141C66.555 33 67.765 35.965 68.8221 38.919L68.846 38.979C69.012 39.455 69.19 39.943 69.57 40.193C69.855 40.383 70.33 40.396 70.864 40.408L71.054 40.42C71.671 40.443 72.408 40.408 72.918 40.384C73.227 40.372 73.583 40.336 73.82 40.158C74.01 40.003 74.117 39.753 74.224 39.503L79.317 26.759L79.436 26.735L83.176 26.782L83.176 39.92C83.176 40.147 83.366 40.337 83.591 40.337L86.251 40.337C86.476 40.337 86.666 40.147 86.666 39.92L86.666 23.876C86.6693 23.7668 86.6281 23.6609 86.552 23.5825C86.4758 23.5042 86.3712 23.4599 86.262 23.46" id="Shape" fill="#000000" fill-rule="evenodd" stroke="none" clip-path="url(#clip_3)" transform="translate(129.65173 192.12157)" />
      </g>
    </g>
    <g id="Group-4" transform="translate(-31 268)" clip-path="url(#clip_1)">
      <path d="M445.333 2.8585L7.60694 174.427Q7.42164 174.5 7.24019 174.581Q7.05873 174.663 6.88156 174.754Q6.70439 174.845 6.53195 174.944Q6.35951 175.043 6.19222 175.151Q6.02493 175.259 5.86321 175.375Q5.7015 175.491 5.54575 175.615Q5.39 175.739 5.2406 175.87Q5.09121 176.002 4.94854 176.141Q4.80587 176.279 4.67027 176.425Q4.53468 176.571 4.40649 176.723Q4.27831 176.875 4.15786 177.034Q4.0374 177.192 3.92498 177.356Q3.81255 177.521 3.70843 177.69Q3.60431 177.86 3.50875 178.034Q3.41319 178.209 3.32644 178.388Q3.23968 178.567 3.16193 178.75Q3.08419 178.934 3.01565 179.12Q2.94711 179.307 2.88795 179.497Q2.82879 179.687 2.77915 179.88Q2.72951 180.073 2.68952 180.268Q2.64953 180.463 2.61928 180.659Q2.58903 180.856 2.5686 181.054Q2.54816 181.252 2.5376 181.451Q2.52704 181.65 2.52638 181.849Q2.52571 182.048 2.53494 182.246Q2.54418 182.445 2.56328 182.643Q2.58239 182.841 2.61132 183.038Q2.64026 183.235 2.67895 183.431Q2.71764 183.626 2.76599 183.819Q2.81434 184.012 2.87223 184.202Q2.93011 184.393 2.9974 184.58Q3.06469 184.767 3.14121 184.951L81.3621 372.769Q81.4366 372.948 81.5196 373.123Q81.6027 373.298 81.6941 373.469Q81.7856 373.64 81.8852 373.806Q81.9848 373.972 82.0923 374.133Q82.1998 374.294 82.315 374.45Q82.4303 374.606 82.5529 374.756Q82.6755 374.906 82.8052 375.05Q82.9349 375.194 83.0715 375.331Q83.208 375.469 83.3511 375.599Q83.4941 375.73 83.6433 375.854Q83.7925 375.977 83.9475 376.094Q84.1025 376.21 84.263 376.318Q84.4234 376.427 84.5889 376.528Q84.7545 376.629 84.9247 376.721Q85.0949 376.814 85.2694 376.898Q85.4438 376.982 85.6222 377.058Q85.8006 377.133 85.9824 377.2Q86.1642 377.267 86.349 377.325Q86.5339 377.384 86.7213 377.433Q86.9088 377.482 87.0983 377.522Q87.2879 377.562 87.4792 377.592Q87.6705 377.623 87.8631 377.644Q88.0557 377.666 88.2491 377.678Q88.4424 377.69 88.6362 377.693Q88.8299 377.695 89.0235 377.689Q89.2172 377.682 89.4103 377.666Q89.6034 377.65 89.7954 377.624Q89.9875 377.599 90.1781 377.564Q90.3688 377.53 90.5575 377.486Q90.7462 377.442 90.9326 377.389Q91.119 377.336 91.3026 377.274Q91.4862 377.212 91.6666 377.142L529.393 205.573Q529.578 205.5 529.76 205.419Q529.941 205.337 530.119 205.246Q530.296 205.156 530.468 205.056Q530.641 204.957 530.808 204.849Q530.975 204.741 531.137 204.625Q531.299 204.509 531.454 204.385Q531.61 204.261 531.759 204.13Q531.909 203.998 532.052 203.86Q532.194 203.721 532.33 203.575Q532.465 203.43 532.594 203.277Q532.722 203.125 532.842 202.967Q532.963 202.808 533.075 202.644Q533.187 202.48 533.292 202.31Q533.396 202.14 533.491 201.966Q533.587 201.791 533.674 201.612Q533.76 201.433 533.838 201.25Q533.916 201.067 533.984 200.88Q534.053 200.693 534.112 200.503Q534.171 200.313 534.221 200.12Q534.271 199.927 534.31 199.732Q534.351 199.537 534.381 199.341Q534.411 199.144 534.431 198.946Q534.452 198.748 534.462 198.549Q534.473 198.351 534.474 198.152Q534.474 197.953 534.465 197.754Q534.456 197.555 534.437 197.357Q534.418 197.159 534.389 196.962Q534.36 196.765 534.321 196.57Q534.282 196.374 534.234 196.181Q534.186 195.988 534.128 195.798Q534.07 195.607 534.003 195.42Q533.935 195.233 533.859 195.049L455.638 7.23111Q455.563 7.05225 455.48 6.8772Q455.397 6.70216 455.306 6.53134Q455.214 6.36052 455.115 6.19433Q455.015 6.02813 454.908 5.86696Q454.8 5.70578 454.685 5.55Q454.57 5.39422 454.447 5.2442Q454.325 5.09417 454.195 4.95026Q454.065 4.80635 453.929 4.66889Q453.792 4.53143 453.649 4.40074Q453.506 4.27005 453.357 4.14644Q453.208 4.02283 453.052 3.90658Q452.897 3.79034 452.737 3.68173Q452.577 3.57313 452.411 3.47242Q452.246 3.37171 452.075 3.27913Q451.905 3.18655 451.731 3.10232Q451.556 3.01809 451.378 2.94241Q451.199 2.86672 451.018 2.79976Q450.836 2.7328 450.651 2.67472Q450.466 2.61663 450.279 2.56757Q450.091 2.5185 449.902 2.47857Q449.712 2.43864 449.521 2.40793Q449.329 2.37722 449.137 2.35581Q448.944 2.33439 448.751 2.32233Q448.558 2.31026 448.364 2.30758Q448.17 2.30489 447.976 2.31158Q447.783 2.31827 447.59 2.33433Q447.397 2.35039 447.205 2.37578Q447.013 2.40116 446.822 2.43582Q446.631 2.47048 446.443 2.51432Q446.254 2.55816 446.067 2.61109Q445.881 2.66402 445.697 2.72591Q445.514 2.7878 445.333 2.85851L445.333 2.8585Z" id="Rectangle" fill="#1F2627" fill-rule="evenodd" stroke="none" />
      <path d="M225.8 204.886L225.8 185.923L265.591 151.086Q272.302 145.067 275.978 140.273Q279.653 135.479 279.653 129.353Q279.653 122.589 275.312 118.727Q270.971 114.865 264.312 114.865Q257.547 114.865 253.366 118.94Q249.184 123.015 249.184 130.419L224.202 130.419Q224.202 119.286 229.209 111.189Q234.216 103.093 243.298 98.6983Q252.38 94.3038 264.419 94.3038Q276.83 94.3038 285.992 98.4586Q295.154 102.613 300.188 110.018Q305.221 117.422 305.221 127.276Q305.221 133.508 302.691 139.607Q300.161 145.706 293.689 153.137Q287.217 160.568 275.392 170.902L262.341 182.94L262.341 183.633L306.553 183.633L306.553 204.886L225.8 204.886ZM321.521 204.886L321.521 185.923L361.311 151.086Q368.023 145.067 371.699 140.273Q375.374 135.479 375.374 129.353Q375.374 122.589 371.033 118.727Q366.691 114.865 360.033 114.865Q353.268 114.865 349.087 118.94Q344.905 123.015 344.905 130.419L319.923 130.419Q319.923 119.286 324.93 111.189Q329.937 103.093 339.019 98.6983Q348.101 94.3038 360.14 94.3038Q372.551 94.3038 381.713 98.4586Q390.875 102.613 395.908 110.018Q400.942 117.422 400.942 127.276Q400.942 133.508 398.412 139.607Q395.882 145.706 389.41 153.137Q382.938 160.568 371.113 170.902L358.062 182.94L358.062 183.633L402.274 183.633L402.274 204.886L321.521 204.886Z" id="twentytwo" fill="url(#gradient_4)" fill-rule="evenodd" stroke="none" filter="url(#filter_2)" />
      <g id="Group_146" transform="translate(254.26094 215.43327)">
        <g id="Group_51" opacity="0.6">
          <path d="M11.484 27.119C11.2384 27.2523 10.9281 27.1668 10.791 26.9279C10.6538 26.689 10.7416 26.3872 10.9871 26.2537C11.2326 26.1201 11.543 26.2054 11.6804 26.4442C11.8172 26.6833 11.7294 26.9851 11.484 27.119" id="Path_1" fill="#FFFFFF" fill-rule="evenodd" stroke="none" filter="url(#filter_1)" />
          <path d="M8.33637 27.6879C8.10804 27.8123 7.82518 27.7906 7.61971 27.6329C7.41425 27.4752 7.32664 27.2126 7.39776 26.9675C7.46888 26.7225 7.68471 26.5433 7.9446 26.5134C8.20448 26.4836 8.45722 26.6091 8.58494 26.8314C8.75926 27.1347 8.64799 27.5181 8.33637 27.6879" id="Path_2" fill="#FFFFFF" fill-rule="evenodd" stroke="none" filter="url(#filter_1)" />
          <path d="M4.98363 27.7911C4.60283 27.9985 4.13113 27.9622 3.7885 27.6992C3.44587 27.4363 3.2998 26.9983 3.41842 26.5896C3.53703 26.181 3.89697 25.8821 4.33036 25.8324C4.76376 25.7827 5.18524 25.9919 5.39826 26.3625C5.53817 26.6054 5.57309 26.8925 5.49531 27.1604C5.41753 27.4284 5.23345 27.6553 4.98363 27.791" id="Path_3" fill="#FFFFFF" fill-rule="evenodd" stroke="none" filter="url(#filter_1)" />
          <path d="M2.40822 25.5733C1.83726 25.8844 1.12993 25.8302 0.616101 25.4359C0.102273 25.0416 -0.116851 24.3849 0.0609171 23.7721C0.238685 23.1593 0.778332 22.711 1.42819 22.6364C2.07806 22.5617 2.71014 22.8754 3.02966 23.4311C3.46586 24.1896 3.18766 25.1487 2.40822 25.5733" id="Path_4" fill="#FFFFFF" fill-rule="evenodd" stroke="none" filter="url(#filter_1)" />
          <path d="M3.19981 21.2918C2.21242 21.8291 0.964387 21.4859 0.41201 20.5252C-0.140368 19.5645 0.212004 18.35 1.19912 17.8123C2.18624 17.2745 3.43444 17.6171 3.9873 18.5775C4.53994 19.5387 4.1874 20.7538 3.19981 21.2918" id="Path_5" fill="#FFFFFF" fill-rule="evenodd" stroke="none" filter="url(#filter_1)" />
          <path d="M6.24282 16.8804C5.15142 17.4747 3.77154 17.0957 3.16067 16.0337C2.5498 14.9717 2.93924 13.629 4.03054 13.0344C5.12183 12.4399 6.50178 12.8188 7.11284 13.8806C7.40634 14.3907 7.47957 14.9933 7.3164 15.5559C7.15324 16.1185 6.76705 16.5949 6.24282 16.8804" id="Path_6" fill="#FFFFFF" fill-rule="evenodd" stroke="none" filter="url(#filter_1)" />
          <path d="M10.815 13.1857C9.61938 13.8366 8.10785 13.4212 7.43888 12.2578C6.76991 11.0944 7.19683 9.62351 8.39242 8.97255C9.58802 8.32158 11.0996 8.73699 11.7685 9.9004C12.0898 10.4591 12.1698 11.1191 11.991 11.7352C11.8122 12.3513 11.3891 12.8731 10.815 13.1857" id="Path_7" fill="#FFFFFF" fill-rule="evenodd" stroke="none" filter="url(#filter_1)" />
          <path d="M37.6714 11.5143C37.8998 11.39 38.0288 11.1441 37.9982 10.8912C37.9675 10.6383 37.7833 10.4283 37.5315 10.3591C37.2797 10.2899 37.0098 10.3751 36.8478 10.5751C36.6857 10.775 36.6634 11.0502 36.7912 11.2724C36.9657 11.5757 37.3597 11.6839 37.6714 11.5143" id="Path_8" fill="#FFFFFF" fill-rule="evenodd" stroke="none" filter="url(#filter_1)" />
          <path d="M39.5144 8.78818C39.8952 8.5809 40.1103 8.17075 40.0592 7.74903C40.0081 7.3273 39.701 6.97705 39.281 6.86162C38.861 6.7462 38.411 6.88834 38.1407 7.22174C37.8704 7.55515 37.8332 8.01416 38.0463 8.38471C38.3373 8.8905 38.9945 9.07111 39.5144 8.78818" id="Path_9" fill="#FFFFFF" fill-rule="evenodd" stroke="none" filter="url(#filter_1)" />
          <path d="M38.9204 5.49201C39.4915 5.18109 39.8138 4.56602 39.7371 3.93365C39.6604 3.30128 39.1997 2.77616 38.5699 2.60318C37.9402 2.4302 37.2653 2.64342 36.8601 3.14342C36.4549 3.64342 36.3992 4.33171 36.7189 4.8873C37.1553 5.64575 38.1408 5.91646 38.9204 5.49201" id="Path_10" fill="#FFFFFF" fill-rule="evenodd" stroke="none" filter="url(#filter_1)" />
          <path d="M34.7567 3.90879C35.7437 3.37081 36.0958 2.15621 35.5431 1.19566C34.9905 0.235119 33.7424 -0.107766 32.7552 0.429742C31.7679 0.96725 31.4152 2.18168 31.9674 3.14249C32.2327 3.60419 32.6757 3.94435 33.1989 4.08808C33.722 4.2318 34.2824 4.16731 34.7567 3.90879" id="Path_11" fill="#FFFFFF" fill-rule="evenodd" stroke="none" filter="url(#filter_1)" />
          <path d="M29.3013 4.12692C30.3925 3.53232 30.7819 2.18951 30.1709 1.12759C29.5599 0.0656754 28.18 -0.313282 27.0887 0.281142C25.9973 0.875567 25.6078 2.21831 26.2185 3.28033C26.5119 3.79044 27.0015 4.16624 27.5797 4.32501C28.1579 4.48378 28.7771 4.41253 29.3013 4.12692" id="Path_12" fill="#FFFFFF" fill-rule="evenodd" stroke="none" filter="url(#filter_1)" />
          <path d="M23.6727 5.98664C24.8683 5.33566 25.2952 3.86482 24.6262 2.70141C23.9572 1.538 22.4457 1.12258 21.2501 1.77354C20.0545 2.4245 19.6276 3.89534 20.2965 5.05876C20.6178 5.61746 21.1539 6.0291 21.7871 6.20311C22.4203 6.37712 23.0985 6.29926 23.6727 5.98664" id="Path_13" fill="#FFFFFF" fill-rule="evenodd" stroke="none" filter="url(#filter_1)" />
        </g>
        <path d="M13.4311 12.7356L18.1897 12.7356L18.1897 34.0949L13.4311 34.0949L13.4311 12.7356ZM33.2622 12.1438C31.7695 12.1333 30.298 12.4885 28.9834 13.1768C27.9743 13.6996 27.097 14.434 26.4152 15.327L26.0647 12.7386L21.7401 12.7386L21.7401 34.0522L26.4977 34.0522L26.4977 22.8006C26.4776 21.8093 26.6331 20.8221 26.9571 19.8821C27.2135 19.1409 27.6395 18.466 28.2031 17.9084C28.7237 17.412 29.3496 17.0324 30.0368 16.7961C31.3105 16.3604 32.6913 16.3181 33.9906 16.6751C34.5567 16.8339 35.079 17.1144 35.5187 17.496C36.0134 17.9502 36.3853 18.5161 36.6017 19.1436C36.907 20.0644 37.0473 21.0295 37.0163 21.9966L37.0163 34.0908L41.7749 34.0908L41.7749 21.1044C41.8851 18.7875 41.176 16.5039 39.7659 14.634C38.414 12.9795 36.2247 12.1398 33.2591 12.1398M79.0165 13.6497C75.3355 11.6969 70.8872 11.6969 67.2061 13.6497C65.535 14.607 64.1728 16.0005 63.2738 17.6725C62.3337 19.4394 61.8567 21.4049 61.8852 23.3944C61.8499 25.3851 62.3276 27.3527 63.2748 29.1174C64.1859 30.7737 65.5446 32.1565 67.2041 33.1164C70.8793 35.1009 75.3464 35.1009 79.0217 33.1164C80.671 32.1514 82.021 30.7699 82.9286 29.1184C83.8754 27.3535 84.3531 25.3861 84.3182 23.3955C84.3464 21.4059 83.8694 19.4405 82.9296 17.6735C82.0342 16.0061 80.6806 14.6134 79.0196 13.6506M76.4921 29.4971C75.476 30.1109 74.2984 30.424 73.1027 30.3982C71.9156 30.4255 70.7465 30.1125 69.7408 29.4981C68.7775 28.8778 68.0056 28.0143 67.5077 26.9999C66.4237 24.6989 66.4237 22.0524 67.5077 19.7513C68.0149 18.753 68.7865 17.9044 69.7428 17.2928C70.7484 16.6781 71.9176 16.3651 73.1047 16.3927C74.3006 16.3667 75.4783 16.6802 76.4941 17.2948C77.4558 17.8979 78.2281 18.7471 78.7263 19.7493C79.7831 22.0582 79.7831 24.695 78.7263 27.0039C78.2374 28.022 77.4648 28.8861 76.4963 29.4981M110.067 12.7356L105.89 12.7356L105.89 6.25531L101.174 6.25531L101.174 12.7356L92.2094 12.7356L92.2094 9.7557C92.1545 8.90132 92.3677 8.05087 92.8207 7.31702C93.4476 6.69675 94.3396 6.40249 95.225 6.52396L97.3857 6.52396L97.3857 2.48626L97.0995 2.44661C96.692 2.3901 96.2559 2.34748 95.8128 2.31675C95.3696 2.28602 94.9305 2.27313 94.5281 2.27313C93.2758 2.25255 92.0352 2.50986 90.9004 3.02555C89.8025 3.55301 88.9092 4.41151 88.3535 5.47315C87.6976 6.80732 87.3853 8.27682 87.4437 9.75471L87.4437 12.7356L84.314 12.7356L84.314 16.6881L87.4477 16.6881L87.4477 34.0949L92.2063 34.0949L92.2063 16.6881L101.171 16.6881L101.171 34.0949L105.886 34.0949L105.886 16.6881L110.063 16.6881L110.067 12.7356ZM48.1289 26.9613C49.8112 30.5073 49.8112 30.5073 52.4749 30.5073C55.6792 29.7099 55.6792 29.7099 55.6799 28.1152C54.8455 26.1507 54.8455 26.1507 53.1768 25.8083L50.0187 25.1253C44.2678 22.2779 44.2678 22.2779 44.2678 19.0594C44.2663 17.2395 45.1042 15.5148 46.5506 14.3606C48.0811 13.0296 50.073 12.3123 52.1252 12.3532C54.4123 12.2309 56.6553 12.9996 58.359 14.4895C59.4391 15.4572 60.1511 16.752 60.3792 18.1634L56.077 19.3589C55.8315 17.457 54.0883 16.0817 52.1252 16.2412C51.3344 16.2139 50.5585 16.4554 49.9308 16.9242C49.3735 17.324 49.0469 17.9595 49.0526 18.6333C49.7695 20.499 49.7695 20.499 51.2032 20.8142L54.452 21.4546C60.5972 24.4164 60.5972 24.4164 60.5972 27.7763C60.6092 29.486 59.8943 31.1246 58.6218 32.3037C56.9619 33.7791 54.765 34.5482 52.5195 34.44C50.0916 34.5533 47.7139 33.7411 45.8915 32.1758C44.6571 31.1614 43.871 29.7239 43.6961 28.1609L48.1289 26.9613ZM18.3874 5.41664C19.0055 6.43099 18.9348 7.70782 18.2083 8.65167C17.4817 9.59553 16.2423 10.0205 15.0682 9.72841C13.894 9.43633 13.0163 8.4847 12.8444 7.31734C12.6725 6.14997 13.2402 4.99679 14.2828 4.39557C14.9662 4.00118 15.7827 3.88719 16.5525 4.07869C17.3223 4.27019 17.9823 4.75148 18.3874 5.41665" id="Group_50" fill="#FFFFFF" fill-rule="evenodd" stroke="none" />
      </g>
    </g>
    <g id="Group-5" transform="translate(-150.65828 445.37372)" clip-path="url(#clip_1)">
      <path d="M48.6374 433.641L48.6374 90.6415Q48.6374 90.4451 48.647 90.2489Q48.6566 90.0528 48.6759 89.8573Q48.6951 89.6619 48.724 89.4676Q48.7528 89.2734 48.7911 89.0807Q48.8294 88.8881 48.8771 88.6976Q48.9248 88.5071 48.9818 88.3192Q49.0389 88.1312 49.105 87.9463Q49.1712 87.7614 49.2463 87.58Q49.3215 87.3986 49.4055 87.221Q49.4894 87.0435 49.582 86.8703Q49.6746 86.6971 49.7755 86.5286Q49.8765 86.3602 49.9856 86.1969Q50.0947 86.0336 50.2117 85.8759Q50.3287 85.7181 50.4533 85.5663Q50.5779 85.4145 50.7098 85.269Q50.8416 85.1235 50.9805 84.9846Q51.1194 84.8457 51.2649 84.7139Q51.4104 84.582 51.5622 84.4574Q51.714 84.3328 51.8718 84.2158Q52.0295 84.0988 52.1928 83.9897Q52.3561 83.8806 52.5245 83.7796Q52.693 83.6787 52.8662 83.5861Q53.0394 83.4935 53.2169 83.4096Q53.3945 83.3256 53.5759 83.2504Q53.7573 83.1753 53.9422 83.1091Q54.1272 83.043 54.3151 82.986Q54.503 82.929 54.6935 82.8812Q54.884 82.8335 55.0766 82.7952Q55.2693 82.7569 55.4635 82.7281Q55.6578 82.6992 55.8532 82.68Q56.0487 82.6608 56.2448 82.6511Q56.441 82.6415 56.6374 82.6415L551.637 82.6415Q551.834 82.6415 552.03 82.6511Q552.226 82.6608 552.422 82.68Q552.617 82.6993 552.811 82.7281Q553.005 82.7569 553.198 82.7952Q553.391 82.8335 553.581 82.8812Q553.772 82.929 553.96 82.986Q554.148 83.043 554.332 83.1091Q554.517 83.1753 554.699 83.2505Q554.88 83.3256 555.058 83.4096Q555.235 83.4935 555.409 83.5861Q555.582 83.6787 555.75 83.7797Q555.919 83.8806 556.082 83.9897Q556.245 84.0988 556.403 84.2158Q556.561 84.3328 556.712 84.4574Q556.864 84.582 557.01 84.7139Q557.155 84.8458 557.294 84.9846Q557.433 85.1235 557.565 85.269Q557.697 85.4145 557.821 85.5663Q557.946 85.7182 558.063 85.8759Q558.18 86.0336 558.289 86.1969Q558.398 86.3602 558.499 86.5287Q558.6 86.6971 558.693 86.8703Q558.785 87.0435 558.869 87.221Q558.953 87.3986 559.028 87.58Q559.103 87.7615 559.17 87.9464Q559.236 88.1313 559.293 88.3192Q559.35 88.5071 559.397 88.6976Q559.445 88.8881 559.484 89.0808Q559.522 89.2734 559.551 89.4676Q559.58 89.6619 559.599 89.8574Q559.618 90.0528 559.628 90.2489Q559.637 90.4451 559.637 90.6415L559.637 433.641Q559.637 433.838 559.628 434.034Q559.618 434.23 559.599 434.426Q559.58 434.621 559.551 434.815Q559.522 435.01 559.484 435.202Q559.445 435.395 559.398 435.585Q559.35 435.776 559.293 435.964Q559.236 436.152 559.17 436.337Q559.103 436.521 559.028 436.703Q558.953 436.884 558.869 437.062Q558.785 437.239 558.693 437.413Q558.6 437.586 558.499 437.754Q558.398 437.923 558.289 438.086Q558.18 438.249 558.063 438.407Q557.946 438.565 557.821 438.717Q557.697 438.868 557.565 439.014Q557.433 439.159 557.294 439.298Q557.155 439.437 557.01 439.569Q556.864 439.701 556.712 439.826Q556.561 439.95 556.403 440.067Q556.245 440.184 556.082 440.293Q555.919 440.402 555.75 440.503Q555.582 440.604 555.409 440.697Q555.235 440.789 555.058 440.873Q554.88 440.957 554.699 441.032Q554.517 441.108 554.332 441.174Q554.147 441.24 553.96 441.297Q553.772 441.354 553.581 441.402Q553.391 441.449 553.198 441.488Q553.005 441.526 552.811 441.555Q552.617 441.584 552.422 441.603Q552.226 441.622 552.03 441.632Q551.834 441.641 551.637 441.641L56.6374 441.641Q56.441 441.641 56.2448 441.632Q56.0487 441.622 55.8532 441.603Q55.6578 441.584 55.4635 441.555Q55.2693 441.526 55.0766 441.488Q54.884 441.449 54.6935 441.402Q54.503 441.354 54.3151 441.297Q54.1271 441.24 53.9422 441.174Q53.7573 441.108 53.5759 441.032Q53.3944 440.957 53.2169 440.873Q53.0394 440.789 52.8662 440.697Q52.693 440.604 52.5245 440.503Q52.3561 440.402 52.1928 440.293Q52.0295 440.184 51.8718 440.067Q51.714 439.95 51.5622 439.826Q51.4104 439.701 51.2649 439.569Q51.1194 439.437 50.9805 439.298Q50.8416 439.159 50.7098 439.014Q50.5779 438.868 50.4533 438.717Q50.3287 438.565 50.2117 438.407Q50.0947 438.249 49.9856 438.086Q49.8765 437.923 49.7755 437.754Q49.6746 437.586 49.582 437.413Q49.4894 437.239 49.4054 437.062Q49.3215 436.884 49.2463 436.703Q49.1712 436.521 49.105 436.337Q49.0388 436.152 48.9818 435.964Q48.9248 435.776 48.8771 435.585Q48.8294 435.395 48.7911 435.202Q48.7528 435.01 48.724 434.815Q48.6951 434.621 48.6759 434.426Q48.6566 434.23 48.647 434.034Q48.6374 433.838 48.6374 433.641Z" transform="rotate(22 304.14 262.14)" id="Rectangle" fill="#206788" stroke="none" />
      <path d="M177.734 214.902L177.734 195.939L217.525 161.102Q224.236 155.083 227.912 150.289Q231.587 145.495 231.587 139.369Q231.587 132.604 227.246 128.742Q222.905 124.881 216.246 124.881Q209.482 124.881 205.3 128.955Q201.119 133.03 201.119 140.435L176.136 140.435Q176.136 129.302 181.143 121.205Q186.151 113.109 195.233 108.714Q204.315 104.319 216.353 104.319Q228.764 104.319 237.926 108.474Q247.088 112.629 252.122 120.033Q257.156 127.437 257.156 137.292Q257.156 143.524 254.625 149.623Q252.095 155.722 245.623 163.153Q239.151 170.584 227.326 180.917L214.276 192.956L214.276 193.648L258.487 193.648L258.487 214.902L177.734 214.902ZM314.95 216.393Q302.486 216.393 292.844 212.105Q283.203 207.817 277.69 200.253Q272.177 192.689 272.07 182.835L298.597 182.835Q298.81 188.215 303.445 191.598Q308.079 194.98 315.057 194.98Q322.088 194.98 326.563 191.331Q331.037 187.682 330.93 181.876Q331.037 176.123 326.056 172.448Q321.076 168.773 312.82 168.773L302.219 168.773L302.219 150.023L312.82 150.023Q320.117 150.023 324.672 146.454Q329.226 142.885 329.173 137.238Q329.226 131.752 325.337 128.316Q321.449 124.881 315.163 124.881Q308.558 124.881 304.084 128.316Q299.609 131.752 299.45 137.345L274.254 137.345Q274.361 127.65 279.661 120.193Q284.961 112.736 294.176 108.528Q303.391 104.319 315.163 104.319Q326.882 104.319 335.751 108.421Q344.62 112.523 349.627 119.58Q354.634 126.638 354.581 135.534Q354.634 144.696 348.588 150.688Q342.543 156.681 333.061 158.066L333.061 158.918Q345.685 160.41 352.184 167.121Q358.683 173.833 358.629 183.9Q358.683 193.382 353.063 200.706Q347.443 208.03 337.589 212.212Q327.734 216.393 314.95 216.393Z" id="twentythree" fill="#FFFFFF" fill-rule="evenodd" stroke="none" filter="url(#filter_2)" />
      <path d="M220.743 241.145L220.743 249.171L215.023 249.171L215.023 243.518C215.023 240.997 214.194 239.917 211.621 239.917C209.93 239.917 208.134 240.668 207.017 241.775L207.017 249.164L201.297 249.164L201.297 234.922L207.017 234.922L207.017 236.987C208.728 235.767 210.929 234.781 213.926 234.781C217.145 234.781 220.737 235.827 220.737 241.145L220.75 241.145L220.743 241.145ZM252.575 230.463L246.855 230.463L246.855 234.936L243.786 234.936L243.786 239.703L246.855 239.703L246.855 249.185L258.295 249.185L258.295 244.41L252.575 244.41L252.575 239.696L258.295 239.696L258.295 234.929L252.575 234.929L252.575 230.456L252.575 230.456L252.575 230.47L252.575 230.463ZM242.246 243.022L228.885 243.022C229.349 244.564 230.923 244.953 232.477 244.953C234.031 244.953 234.854 244.873 235.657 244.437L241.88 244.437C240.972 247.85 237.962 249.526 232.477 249.526C226.992 249.526 223.132 247.401 223.132 242.057C223.132 236.712 226.965 234.587 232.712 234.587C238.458 234.587 242.246 236.712 242.246 243.022L242.246 243.022L242.246 243.022ZM236.257 239.783C235.604 238.818 234.187 238.368 232.672 238.368C231.157 238.368 229.76 238.818 229.159 239.783C229.159 239.783 236.257 239.783 236.257 239.783L236.257 239.783ZM274.3 242.539C273.222 243.599 271.511 244.33 269.885 244.33C267.423 244.33 266.568 243.304 266.568 240.883L266.568 234.949L260.848 234.949L260.848 243.19C260.848 248.279 264.576 249.265 267.665 249.265C270.545 249.265 272.654 248.333 274.3 247.153L274.3 249.184L280.02 249.184L280.02 234.935L274.3 234.935L274.3 242.539L274.3 242.539L274.3 242.539ZM306.877 234.714C303.501 234.714 301.489 235.8 300.105 237.457C299.014 235.371 296.644 234.714 294.901 234.714C291.525 234.714 289.892 236.136 288.658 237.329L288.658 234.942L282.938 234.942L282.938 249.191L288.658 249.191L288.658 241.5C289.833 240.313 291.015 239.689 292.419 239.689C294.45 239.689 295.07 240.736 295.07 243.183L295.07 249.191L300.791 249.191L300.791 241.352C301.966 240.166 302.978 239.696 304.382 239.696C306.413 239.696 307.033 240.742 307.033 243.19L307.033 249.198L312.754 249.198L312.754 240.628C312.754 235.72 309.28 234.714 306.857 234.714L306.877 234.714L306.877 234.714ZM192.658 234.935L192.678 249.184L198.372 249.184L198.352 234.935C198.352 234.935 192.658 234.935 192.658 234.935L192.658 234.935ZM198.379 227.526L192.658 227.526L192.658 233.4L198.379 233.4C198.379 233.4 198.379 227.526 198.379 227.526L198.379 227.526Z" id="Shape" fill="#000000" fill-rule="evenodd" stroke="none" />
      <path d="M326.218 231.563L326.218 237.436L331.939 237.436L331.939 243.31L337.659 243.31L337.659 231.563L326.218 231.563L326.218 231.563ZM326.219 243.296L320.498 243.296L320.498 249.17L326.219 249.17L326.219 243.296L326.219 243.296Z" id="Shape" fill="#00AA9B" fill-rule="evenodd" stroke="none" />
    </g>
  </g>
</svg>