<?xml version="1.0" encoding="utf-8"?>
<!-- Generator: Adobe Illustrator 25.4.1, SVG Export Plug-In . SVG Version: 6.00 Build 0)  -->
<svg version="1.1" id="Layer_1" xmlns="http://www.w3.org/2000/svg" xmlns:xlink="http://www.w3.org/1999/xlink" x="0px" y="0px"
	 viewBox="0 0 28.29 10.01" style="enable-background:new 0 0 28.29 10.01;" xml:space="preserve">
<style type="text/css">
	.st0{fill:#3760AC;}
	.st1{fill:url(#SVGID_1_);}
	.st2{fill:none;}
	.st3{fill:#3C8CBB;}
</style>
<g>
	<g>
		<rect x="21.63" y="2.95" class="st0" width="1.11" height="3.65"/>
		<rect x="21.63" y="1.63" class="st0" width="1.11" height="1.1"/>
		<path class="st0" d="M25.96,5.4c-0.12,0.1-0.25,0.15-0.4,0.18c-0.02,0-0.03,0.01-0.05,0.01c-0.14,0.01-0.28-0.05-0.4-0.15
			c-0.14-0.13-0.22-0.3-0.23-0.49V4.06h1.01V2.95l-1.02,0V1.62h-1.11v1.33l-0.66,0v1.11h0.66l0.01,1.09
			c0.03,0.42,0.22,0.82,0.54,1.11c0.29,0.26,0.65,0.41,1.02,0.41c0.03,0,0.05,0,0.08,0c0.05,0,0.1-0.01,0.15-0.02
			c0.31-0.05,0.59-0.17,0.84-0.37L25.96,5.4z"/>
		<path class="st0" d="M9.33,2.72c-0.61,0-1.23,0.16-1.65,0.46l0.4,0.78c0.28-0.22,0.7-0.36,1.1-0.36c0.6,0,0.88,0.28,0.88,0.75
			H9.18c-1.17,0-1.64,0.47-1.64,1.15c0,0.66,0.53,1.16,1.43,1.16c0.56,0,0.96-0.19,1.17-0.53v0.48h1.04V4.42
			C11.17,3.26,10.5,2.72,9.33,2.72 M10.06,5.4C9.94,5.74,9.62,5.92,9.25,5.92c-0.39,0-0.63-0.18-0.63-0.46C8.62,5.2,8.78,5,9.3,5
			h0.76V5.4z"/>
		<rect x="11.53" y="1.24" class="st0" width="1.11" height="5.37"/>
		<path class="st0" d="M15.77,4.67c0,0.7-0.37,1.03-0.88,1.03c-0.49,0-0.78-0.28-0.78-0.93V2.73H13v2.21c0,1.18,0.68,1.72,1.64,1.72
			c0.47,0,0.9-0.18,1.19-0.51V6.6h1.05V2.73h-1.11V4.67z"/>
		<path class="st0" d="M19.28,2.72c-1.17,0-2.04,0.83-2.04,1.97c0,1.14,0.86,1.97,2.18,1.97c0.69,0,1.22-0.21,1.58-0.62L20.41,5.4
			c-0.26,0.25-0.56,0.37-0.96,0.37c-0.58,0-0.99-0.29-1.1-0.77h2.9c0.01-0.09,0.02-0.21,0.02-0.3C21.27,3.47,20.4,2.72,19.28,2.72
			 M18.34,4.36c0.08-0.49,0.44-0.8,0.95-0.8c0.5,0,0.86,0.31,0.94,0.8H18.34z"/>
		<g>
			<g>
				
					<linearGradient id="SVGID_1_" gradientUnits="userSpaceOnUse" x1="-2380.5977" y1="-1939.2695" x2="-2375.6375" y2="-1939.2695" gradientTransform="matrix(0.8669 0.4985 -0.4985 0.8669 1099.4458 2869.5129)">
					<stop  offset="0" style="stop-color:#3760AC"/>
					<stop  offset="0.1957" style="stop-color:#396DB1"/>
					<stop  offset="0.5599" style="stop-color:#3E90BD"/>
					<stop  offset="0.9994" style="stop-color:#46C2CE"/>
					<stop  offset="1" style="stop-color:#46C2CE"/>
				</linearGradient>
				<polygon class="st1" points="5.98,2.56 6.43,2.39 6.51,2.87 6.6,3.35 6.34,3.2 4.86,5.77 5.34,6.61 8.21,1.63 5.54,1.63 
					4.51,3.44 3.46,1.63 2.49,1.63 4.49,5.13 5.79,2.88 5.53,2.73 				"/>
				<polygon class="st2" points="4.66,6.11 4.67,6.11 4.67,6.11 				"/>
			</g>
			<rect x="4.99" y="1.08" class="st3" width="0.16" height="0.16"/>
			<rect x="5.15" y="1.24" class="st3" width="0.39" height="0.39"/>
		</g>
	</g>
	<g>
		<path class="st0" d="M9.33,7.92h0.12v0.23C9.39,8.2,9.3,8.22,9.22,8.22c-0.18,0-0.31-0.12-0.31-0.29s0.13-0.29,0.31-0.29
			c0.1,0,0.18,0.03,0.24,0.1L9.38,7.81C9.34,7.77,9.29,7.75,9.23,7.75c-0.11,0-0.19,0.07-0.19,0.18c0,0.11,0.08,0.18,0.18,0.18
			c0.04,0,0.07-0.01,0.1-0.02V7.92z"/>
		<path class="st0" d="M9.98,8.21L9.87,8.05H9.87H9.75v0.16H9.62V7.65h0.24c0.15,0,0.25,0.08,0.25,0.21c0,0.08-0.04,0.15-0.12,0.18
			l0.13,0.18H9.98z M9.86,7.75H9.75v0.2h0.11c0.08,0,0.12-0.04,0.12-0.1C9.98,7.79,9.94,7.75,9.86,7.75z"/>
		<path class="st0" d="M10.23,7.93c0-0.17,0.13-0.29,0.31-0.29c0.18,0,0.31,0.12,0.31,0.29s-0.13,0.29-0.31,0.29
			C10.36,8.22,10.23,8.1,10.23,7.93z M10.72,7.93c0-0.11-0.08-0.18-0.18-0.18c-0.1,0-0.18,0.07-0.18,0.18
			c0,0.11,0.08,0.18,0.18,0.18C10.64,8.11,10.72,8.04,10.72,7.93z"/>
		<path class="st0" d="M11.84,7.65l-0.19,0.57h-0.14l-0.12-0.38l-0.13,0.38h-0.14l-0.19-0.57h0.14l0.13,0.4l0.13-0.4h0.12l0.13,0.4
			l0.13-0.4H11.84z"/>
		<path class="st0" d="M12.08,7.75H11.9V7.65h0.49v0.11h-0.18v0.46h-0.13V7.75z"/>
		<path class="st0" d="M13.03,7.65v0.57H12.9V7.98h-0.26v0.23h-0.13V7.65h0.13v0.22h0.26V7.65H13.03z"/>
		<path class="st0" d="M14.35,7.65l-0.18,0.57h-0.14l-0.12-0.38l-0.13,0.38h-0.14l-0.19-0.57h0.14l0.13,0.4l0.13-0.4h0.12l0.13,0.4
			l0.13-0.4H14.35z"/>
		<path class="st0" d="M14.48,7.65h0.13v0.57h-0.13V7.65z"/>
		<path class="st0" d="M14.91,7.75h-0.18V7.65h0.49v0.11h-0.18v0.46h-0.13V7.75z"/>
		<path class="st0" d="M15.87,7.65v0.57h-0.13V7.98h-0.26v0.23h-0.13V7.65h0.13v0.22h0.26V7.65H15.87z"/>
		<path class="st0" d="M16.34,7.65h0.26c0.18,0,0.31,0.11,0.31,0.28c0,0.17-0.13,0.28-0.31,0.28h-0.26V7.65z M16.59,8.1
			c0.11,0,0.19-0.07,0.19-0.18s-0.07-0.18-0.19-0.18h-0.12V8.1H16.59z"/>
		<path class="st0" d="M17.05,7.65h0.13v0.57h-0.13V7.65z"/>
		<path class="st0" d="M17.76,7.92h0.12v0.23c-0.06,0.05-0.15,0.07-0.23,0.07c-0.18,0-0.31-0.12-0.31-0.29s0.13-0.29,0.31-0.29
			c0.1,0,0.18,0.03,0.24,0.1L17.8,7.81c-0.04-0.04-0.09-0.06-0.15-0.06c-0.11,0-0.19,0.07-0.19,0.18c0,0.11,0.08,0.18,0.18,0.18
			c0.04,0,0.07-0.01,0.1-0.02V7.92z"/>
		<path class="st0" d="M18.05,7.65h0.13v0.57h-0.13V7.65z"/>
		<path class="st0" d="M18.48,7.75H18.3V7.65h0.49v0.11h-0.18v0.46h-0.13V7.75z"/>
		<path class="st0" d="M19.26,8.09H19l-0.05,0.12h-0.13l0.25-0.57h0.13l0.25,0.57h-0.14L19.26,8.09z M19.22,7.99l-0.09-0.22
			l-0.09,0.22H19.22z"/>
		<path class="st0" d="M19.56,7.65h0.13v0.46h0.28v0.11h-0.41V7.65z"/>
	</g>
</g>
</svg>
