<?xml version="1.0" encoding="utf-8"?>
<svg width="1280.0001px" height="635px" viewBox="0 0 1280.0001 635" version="1.1" xmlns:xlink="http://www.w3.org/1999/xlink" xmlns="http://www.w3.org/2000/svg">
  <path d="M0 0L1280 0L1280 635L916.759 514.269L565.192 545.139Q560.605 545.542 556 545.522Q551.396 545.501 546.812 545.057Q542.229 544.614 537.705 543.751Q533.182 542.888 528.757 541.613L271.926 467.606Q271.258 467.414 270.584 467.24Q269.911 467.066 269.232 466.911Q268.554 466.755 267.872 466.619Q267.19 466.483 266.504 466.366Q265.818 466.249 265.129 466.151Q264.441 466.052 263.749 465.974Q263.058 465.895 262.365 465.835Q261.672 465.776 260.977 465.735Q260.283 465.695 259.587 465.674Q258.892 465.653 258.196 465.652Q257.501 465.65 256.805 465.668Q256.11 465.686 255.415 465.723Q254.72 465.76 254.027 465.816Q253.333 465.873 252.642 465.948Q251.95 466.024 251.261 466.119Q250.572 466.214 249.886 466.328Q249.199 466.442 248.516 466.575Q247.834 466.708 247.155 466.86Q246.476 467.012 245.801 467.183Q245.127 467.354 244.458 467.544Q243.788 467.733 243.124 467.941Q242.461 468.149 241.803 468.376Q241.145 468.603 240.494 468.847Q239.842 469.092 239.198 469.355Q238.554 469.617 237.917 469.898Q237.281 470.179 236.652 470.477Q236.024 470.775 235.404 471.091Q234.784 471.406 234.173 471.739Q233.562 472.072 232.96 472.421Q232.359 472.771 231.767 473.137Q231.175 473.503 230.594 473.885Q230.013 474.268 229.443 474.666L0 635L0 0Z" id="Rectangle" fill="#000000" fill-rule="evenodd" stroke="none" />
</svg>